<?xml version="1.0" encoding="UTF-8" standalone="no"?>
<svg
   xmlns:dc="http://purl.org/dc/elements/1.1/"
   xmlns:cc="http://creativecommons.org/ns#"
   xmlns:rdf="http://www.w3.org/1999/02/22-rdf-syntax-ns#"
   xmlns:svg="http://www.w3.org/2000/svg"
   xmlns="http://www.w3.org/2000/svg"
   xmlns:sodipodi="http://sodipodi.sourceforge.net/DTD/sodipodi-0.dtd"
   xmlns:inkscape="http://www.inkscape.org/namespaces/inkscape"
   height="64"
   width="64"
   version="1.1"
   id="svg6"
   sodipodi:docname="view-sort-descending.svg"
   inkscape:version="0.92.2 (5c3e80d, 2017-08-06)">
  <metadata
     id="metadata12">
    <rdf:RDF>
      <cc:Work
         rdf:about="">
        <dc:format>image/svg+xml</dc:format>
        <dc:type
           rdf:resource="http://purl.org/dc/dcmitype/StillImage" />
        <dc:title />
      </cc:Work>
    </rdf:RDF>
  </metadata>
  <defs
     id="defs10" />
  <sodipodi:namedview
     pagecolor="#ffffff"
     bordercolor="#666666"
     borderopacity="1"
     objecttolerance="10"
     gridtolerance="10"
     guidetolerance="10"
     inkscape:pageopacity="0"
     inkscape:pageshadow="2"
     inkscape:window-width="1658"
     inkscape:window-height="765"
     id="namedview8"
     showgrid="false"
     inkscape:zoom="5.2149125"
     inkscape:cx="8.045193"
     inkscape:cy="44.25613"
     inkscape:window-x="0"
     inkscape:window-y="33"
     inkscape:window-maximized="0"
     inkscape:current-layer="svg6" />
  <g
     transform="matrix(4.6964844,0,0,4.1087633,-439.72306,-1152.394)"
     id="g4"
     style="color:#000000">
    <path
       d="m 95,282 v 3 h 3 v -3 z m 8,0 v 8.002 h -2 c 0.348,0.76 0.736,1.534 1.166,2.322 0.43,0.781 0.876,1.535 1.334,2.26 0.45,-0.725 0.89,-1.479 1.32,-2.26 A 43.07,43.07 0 0 0 106,290 h -2 v -8 z m -7,1 h 1 v 1 h -1 z m -1,3 v 3 h 3 v -3 z m 1,1 h 1 v 1 h -1 z m -1,3 v 3 h 3 v -3 z m 1,1 h 1 v 1 h -1 z"
       font-weight="400"
       overflow="visible"
       style="font-weight:400;line-height:normal;font-family:sans-serif;font-variant-ligatures:none;font-variant-position:normal;font-variant-caps:normal;font-variant-numeric:normal;font-variant-alternates:normal;font-feature-settings:normal;text-indent:0;text-align:start;text-decoration:none;text-decoration-line:none;text-decoration-style:solid;text-decoration-color:#000000;text-transform:none;white-space:normal;shape-padding:0;overflow:visible;isolation:auto;mix-blend-mode:normal;fill:#808080;marker:none"
       id="path2"
       inkscape:connector-curvature="0" />
  </g>
</svg>
