<?xml version="1.0" encoding="iso-8859-1"?>
<!-- Generator: Adobe Illustrator 16.0.0, SVG Export Plug-In . SVG Version: 6.00 Build 0)  -->
<!DOCTYPE svg PUBLIC "-//W3C//DTD SVG 1.1//EN" "http://www.w3.org/Graphics/SVG/1.1/DTD/svg11.dtd">
<svg version="1.1" id="Capa_1" xmlns="http://www.w3.org/2000/svg" xmlns:xlink="http://www.w3.org/1999/xlink" x="0px" y="0px"
	 width="533.328px" height="533.328px" viewBox="0 0 533.328 533.328" style="enable-background:new 0 0 533.328 533.328;"
	 xml:space="preserve">
<g>
	<path d="M299.964,233.33v121.971c0,30.947-0.402,48.779,2.879,57.553c3.255,8.726,11.418,17.784,20.309,23.023
		c11.814,7.076,25.283,10.611,40.473,10.611c27.008,0,42.958-3.566,69.657-21.114v80.179l0,0
		c-22.76,10.705-42.637,16.977-61.106,21.314c-18.489,4.292-38.469,6.461-59.928,6.461c-24.39,0-38.78-3.066-57.506-9.195
		c-18.728-6.182-34.719-15.004-47.927-26.323c-13.255-11.419-22.407-23.546-27.525-36.37c-5.118-12.832-7.665-31.466-7.665-55.856
		V218.551h-71.577v-75.524c20.942-6.793,44.356-16.556,59.26-29.246c14.976-12.734,26.962-27.972,35.993-45.804
		C204.358,50.193,210.586,27.502,213.984,0h85.981l-0.001,133.33h133.317v100H299.964z"/>
</g>
<g>
</g>
<g>
</g>
<g>
</g>
<g>
</g>
<g>
</g>
<g>
</g>
<g>
</g>
<g>
</g>
<g>
</g>
<g>
</g>
<g>
</g>
<g>
</g>
<g>
</g>
<g>
</g>
<g>
</g>
</svg>
